<svg xmlns="http://www.w3.org/2000/svg" xmlns:xlink="http://www.w3.org/1999/xlink" version="1.1" width="33.5470085144043" height="33.25640869140625" xml:space="preserve" style=""><rect id="backgroundrect" width="100%" height="100%" x="0" y="0" fill="none" stroke="none" class="" style=""/>
<desc>Created with Fabric.js 5.2.4</desc>
<defs>
</defs>





<g class="currentLayer" style=""><title>Layer 1</title><rect x="79.48717498779297" y="30.769227981567383" width="27.613414764404297" height="27.613414764404297" fill="transparent" id="svg_1" class=""/><g id="2508e62e-856a-47a2-9187-8a4b5969e0bc" class="">
<rect style="stroke: none; stroke-width: 1; stroke-dasharray: none; stroke-linecap: butt; stroke-dashoffset: 0; stroke-linejoin: miter; stroke-miterlimit: 4; fill: rgb(255,255,255); fill-rule: nonzero; opacity: 1; visibility: hidden;" vector-effect="non-scaling-stroke" x="106.46580505371094" y="32.9615364074707" rx="0" ry="0" width="11" height="11" transform="matrix(1,0,0,1,5.5,5.5) " stroke-width="0" id="svg_2"/>
</g><g id="f13b0ddc-753a-4247-9ce4-7029d6cc4751" class="">
</g><g id="svg_3" class="" stroke="#242424" stroke-opacity="1" fill="#919191" fill-opacity="1">
<path style="stroke-width: 0; stroke-dasharray: none; stroke-linecap: butt; stroke-dashoffset: 0; stroke-linejoin: miter; stroke-miterlimit: 4; fill-rule: nonzero; opacity: 1;" vector-effect="non-scaling-stroke" d="M12.48885885900605,13.915820249156361 C12.253786085552827,13.687636055144992 11.879219578402086,13.692802489726379 11.651035384390719,13.927014190749372 C11.42285119037935,14.16122589177236 11.428017624960741,14.536653471353333 11.66222932598373,14.764837665364702 L16.380045171222577,19.33971548718511 L16.79335993773374,18.91520677908094 L16.380045171222577,19.34143763204557 C16.615979017106035,19.569621826056945 16.991406596687007,19.56359431904532 17.219590790698376,19.328521545592096 C17.226479370140225,19.321632966150247 17.23250687715185,19.314744386708394 17.238534384163472,19.30785580726654 L21.884020145262863,14.764837665364702 C22.11909291871609,14.536653471353333 22.124259353297475,14.16122589177236 21.896075159286106,13.927014190749368 C21.66789096527474,13.692802489726379 21.292463385693768,13.68677498271476 21.05825168467078,13.915820249156358 L16.791637792873278,18.08857724605862 L12.48885885900605,13.915820249156361 L12.48885885900605,13.915820249156361 z" stroke-linecap="round" stroke-width="0" id="svg_4" stroke="#242424" stroke-opacity="1" fill="#919191" fill-opacity="1"/>
</g><g id="svg_5" class="">
<g style="" stroke-width="0" id="svg_6">
</g>
</g></g></svg>